<svg width="41" height="38" viewBox="0 0 41 38" fill="none" xmlns="http://www.w3.org/2000/svg">
<path d="M39.5291 11.6339H32.8099L26.58 2.14496C25.9807 1.23219 24.7601 0.968767 23.8377 1.55315L23.2647 1.91622C22.3027 2.52566 22.043 3.8141 22.6938 4.74858L27.5 11.6507H14.5L19.3062 4.74858C19.957 3.8141 19.6973 2.52566 18.7353 1.91622L18.1158 1.52369C17.212 0.95109 16.0176 1.19118 15.4053 2.06855L8.72966 11.6339H1.47103C1.08104 11.6339 0.706781 11.7923 0.430703 12.0745C0.154976 12.3563 0 12.7389 0 13.1378V17.7534C0 18.5819 0.671573 19.2534 1.5 19.2534H41V13.1378C41 12.7389 40.845 12.3563 40.5693 12.0745C40.2932 11.7923 39.9191 11.6339 39.5291 11.6339Z" fill="white"/>
<path d="M7.34537 36.4385C7.42259 36.7396 7.60484 37.0077 7.86362 37.2003C8.12241 37.3928 8.44229 37.4984 8.77249 37.5H33.1777C33.5079 37.4984 33.8278 37.3928 34.0866 37.2003C34.3454 37.0078 34.5276 36.7396 34.6048 36.4385L38 22.5H4L7.34537 36.4385Z" fill="white"/>
</svg>
