<svg width="1378" height="1877" viewBox="0 0 1378 1877" fill="none" xmlns="http://www.w3.org/2000/svg">
<path d="M0 5.50049C78 2.50088 67 78.4419 67 106.999C67 161.668 117.037 107.375 147.783 78.0694C160.725 65.7338 182.604 65.9551 193.904 79.8106V79.8106C218.578 110.065 243.93 94.2814 281.993 102.965C302.986 107.755 296.499 143.185 314.966 155.882C337.475 171.359 351.707 194.973 351.707 223.058C351.707 256.567 359.177 295.183 383.103 319.859C399.262 336.525 414.386 351.251 437.045 358.442C446.573 361.466 460.496 358.787 470.445 358.787C501.861 358.787 533.517 371.724 559.792 389.791C591.533 411.615 589.222 432.36 595.864 467.301C602.15 500.363 617.996 532.308 639.118 558.934C654.42 578.223 666.493 598.089 684.123 599.801C712.576 602.563 741.01 587.018 768.044 596.312V596.312C782.167 601.167 796.427 607.298 810.295 613.019C827.646 620.178 844.867 627.376 861.398 636.445C876.484 644.721 1225.37 832.454 1239.5 841.499C1305.91 884.011 1372.5 766.24 1372.5 841.499V841.499C1372.5 969.749 1176.97 1001.47 1049.16 1012.08C954.019 1019.98 855.751 1025.28 839.354 1032.26C809.486 1044.98 772.55 1051.44 745.832 1070.16C728.684 1082.17 712.021 1094.01 697.402 1109.08V1109.08C668.368 1139.03 664.117 1182.9 633.599 1211.33C627.285 1217.21 621.395 1224.12 616.072 1233.27C610.535 1242.79 611.918 1250.93 608.557 1260.83C604.599 1272.49 598.843 1283.72 593.86 1294.94C584.199 1316.68 571.069 1339.59 550.106 1351.6C533.293 1361.24 517.254 1373.88 501.341 1385.02C482.509 1398.2 460.386 1398.33 440.218 1409.13C405.137 1427.92 371.784 1432.23 333.002 1434.45C312.045 1435.66 291.278 1437.03 270.376 1439.28C257.369 1440.67 242.532 1438.98 230.129 1444.1C218.148 1449.04 205.155 1463.46 196.729 1473.73C174.27 1501.1 206.913 1551.77 186 1579.5V1579.5C165.998 1606.02 119.751 1608.46 98.0528 1633.62C92.1061 1640.51 87.4198 1647.37 85.9999 1654C80.5345 1679.53 162.037 1700.07 234.751 1722.7C308.783 1745.74 306.781 1842.54 378.5 1872V1872" stroke="#FF1515" stroke-width="10" stroke-linecap="round"/>
</svg>
