<svg width="1383" height="1037" viewBox="0 0 1383 1037" fill="none" xmlns="http://www.w3.org/2000/svg">
<path d="M5 5.08637C83 2.08677 72 78.0278 72 106.585C72 161.254 122.037 106.961 152.783 77.6553C165.725 65.3197 187.604 65.541 198.904 79.3964V79.3964C223.578 109.651 248.93 93.8673 286.993 102.551C307.986 107.341 301.499 142.771 319.966 155.468C342.475 170.945 356.707 194.559 356.707 222.644C356.707 256.153 364.177 294.769 388.103 319.445C404.262 336.111 419.386 350.837 442.045 358.028C451.573 361.052 465.496 358.373 475.445 358.373C506.861 358.373 538.517 371.31 564.792 389.377C596.533 411.201 594.222 431.946 600.864 466.887C607.15 499.949 622.996 531.894 644.118 558.52C659.42 577.809 671.493 597.675 689.123 599.387C717.576 602.149 746.01 586.603 773.044 595.897V595.897C787.167 600.753 801.427 606.884 815.295 612.605C832.646 619.763 849.867 626.961 866.398 636.03C881.484 644.307 1230.37 832.04 1244.5 841.085C1310.91 883.597 1377.5 765.826 1377.5 841.085V841.085C1377.5 969.335 1181.97 1001.06 1054.16 1011.67C959.019 1019.57 860.751 1024.87 844.354 1031.85" stroke="#FF1515" stroke-width="10" stroke-linecap="round"/>
</svg>
