<svg width="96" height="754" viewBox="0 0 96 754" fill="none" xmlns="http://www.w3.org/2000/svg">
<path d="M145.01 5C137.692 15.1683 56.4376 57.9022 54.4637 107.444C53.9803 119.576 53.8387 131.897 44.2264 139.315V139.315C37.9117 144.189 30.8678 148.561 24.1765 152.902C0.850529 168.037 5.85983 196.952 7.03537 225.722C7.77104 243.726 12.7572 261.175 23 276V276V276C45.1597 308.074 88.552 339.916 78.473 377.575C77.9672 379.465 77.3614 381.363 76.6656 383.271C64.5203 416.573 17.6221 433.851 15.8894 469.257V469.257C15.4105 479.042 24.5755 494.939 34.8466 509.132C43.469 521.046 46.1579 536.095 54.7788 548.011V548.011C69.4905 568.345 80.1482 594.524 95.1127 614.672C99.1832 620.153 102.778 625.952 106.323 632.032C115.796 648.283 131.214 663.158 145.01 677.841C165.85 700.021 183.628 725.335 201 749" stroke="#FF1515" stroke-width="10" stroke-linecap="round"/>
</svg>
