<svg width="603" height="249" viewBox="0 0 603 249" fill="none" xmlns="http://www.w3.org/2000/svg">
<path d="M628.342 6.44008C615.892 8.58884 615.379 6.88449 589.477 16.31C588.767 16.541 588.053 16.7444 587.337 16.9244C556.349 24.7122 521.703 42.3825 517.232 74.0194V74.0194C516.64 78.2071 516.254 83.2741 515.387 88.0735C513.042 101.051 499.284 107.605 486.82 111.913V111.913C475.581 115.797 462.995 117.076 451.248 118.708V118.708C398.571 126.027 344.974 125.971 292.109 120.163C285.55 119.443 278.974 118.644 272.364 117.784C252.261 115.17 234.083 113.65 213.818 115.174C202.369 116.035 200.756 118.528 182.708 119.871C175.209 120.429 168.262 123.056 160.914 124.654V124.654C149.375 127.163 135.506 135.896 124.908 141.657V141.657C107.888 150.909 104.262 157.41 94.7143 174.267V174.267C91.4611 180.01 83.3089 193.632 81.9861 200.099C81.209 203.899 80.4597 207.822 79.2326 211.452C70.3496 237.734 2.69678 214.955 6.00009 242.5V242.5" stroke="#FF1515" stroke-width="10" stroke-linecap="square"/>
</svg>
