<svg width="72" height="61" viewBox="0 0 72 61" fill="none" xmlns="http://www.w3.org/2000/svg">
<path d="M57.4896 3.10097L58.8956 8.40467L56.0969 13.3042C54.0939 12.6579 51.9756 12.7757 50.0689 13.5047C45.4549 10.7516 39.0973 8.18178 32.7891 8.12954C30.5954 8.11228 28.4087 8.40012 26.3088 9.08904C16.2846 12.3747 6.01985 21.528 4.97352 32.6684C4.69686 35.619 5.6328 38.4163 7.47751 40.8196L2.24947 40.8201C1.00724 40.8201 0 41.838 0 43.094V50.9075C0 52.1635 1.00724 53.1819 2.24947 53.1819H10.4214L14.27 59.8674C14.6717 60.567 15.4113 60.999 16.2116 61H55.7882C56.5901 61.0005 57.3318 60.5685 57.7345 59.8674L61.5831 53.1819H69.7505C70.9928 53.1819 72 52.1635 72 50.9075V43.094C72 41.838 70.9928 40.8196 69.7505 40.8196H68.3672C69.3619 35.1108 65.8214 27.8024 62.6908 24.6365C63.4801 21.3666 62.4754 17.8637 59.993 15.5792L62.7917 10.6797L68.0373 9.25811C70.576 8.57021 69.7234 4.09152 66.8689 4.86468L62.8972 5.93992L61.8343 1.92429C60.9551 -1.39278 56.656 -0.0419337 57.4889 3.10158L57.4896 3.10097ZM32.7544 12.7716C37.2343 12.8929 42.2032 14.5032 46.0841 16.4852C44.6837 18.392 43.5816 20.6192 42.3715 22.7397C36.6177 35.0548 52.7056 42.9374 58.7721 32.3123L60.4989 29.2917C63.2038 32.0265 64.6459 36.7681 63.6492 40.8189H14.1608C10.535 38.5572 9.18184 36.0118 9.4555 33.0987C10.2453 24.682 19.2397 16.1878 27.6968 13.4157C29.3834 12.9344 31.188 12.8562 32.7536 12.772L32.7544 12.7716ZM57.8804 24.7831L54.8752 30.0381C51.1535 35.3524 43.3125 30.1904 46.2685 25.0142L49.2691 19.7547C52.328 14.3982 60.404 20.0486 57.8804 24.7831ZM4.49843 45.3681L67.5017 45.3676V48.6324H4.49843V45.3681ZM15.6228 53.1817H56.3768L54.4964 56.4511H17.5035L15.6228 53.1817Z" fill="#FF1515"/>
</svg>
