<svg width="71" height="61" viewBox="0 0 71 61" fill="none" xmlns="http://www.w3.org/2000/svg">
<path d="M58.0051 0.699104C49.8808 8.86811 41.7363 17.0403 33.6227 25.2069C23.1337 25.2246 12.6132 25.1805 2.13851 25.2246C0.930594 25.3247 0.00254012 26.3279 0 27.5324V39.8112C0 42.282 1.34573 44.4731 3.25817 46.1779C5.17062 47.8821 7.71381 49.2532 10.7569 50.3965C12.4834 51.0453 14.3906 51.6078 16.4184 52.0951V58.675C16.4184 59.959 17.466 61 18.758 61L49.1726 60.999C50.4646 60.999 51.5122 59.9579 51.5122 58.674V52.0941C53.54 51.6073 55.4472 51.0442 57.1737 50.3955C60.2168 49.2522 62.7641 47.8811 64.6766 46.1768C66.589 44.4726 67.9301 42.281 67.9301 39.8101V27.5314C67.9295 26.2988 66.9613 25.2807 65.7231 25.211C60.7086 25.2022 55.6676 25.2064 50.6441 25.2064L70.0186 11.6976C72.3639 10.0359 70.1204 6.28791 67.3317 7.88789C59.0914 13.6707 50.7326 19.396 42.5468 25.2069L40.1984 25.2074L61.3322 3.96917C63.4232 1.89118 60.1808 -1.46298 58.0051 0.699104ZM4.71072 29.8569H63.2191V32.1818H4.71072V29.8569ZM4.67887 36.8318H63.25V39.8107C63.25 40.6311 62.8297 41.5762 61.5502 42.7169C60.2707 43.857 58.1917 45.0408 55.5185 46.0456C50.1719 48.0545 42.4867 49.3696 33.9635 49.3696C25.4403 49.3696 17.7562 48.054 12.4086 46.0456C9.73531 45.0414 7.65629 43.8576 6.37687 42.7169C5.09741 41.5762 4.67699 40.6312 4.67699 39.8107L4.67887 36.8318ZM21.0974 54.0193H46.8328V56.3489L21.0974 56.3484V54.0193Z" fill="#FF1515"/>
</svg>
