<svg width="63" height="63" viewBox="0 0 63 63" fill="none" xmlns="http://www.w3.org/2000/svg">
<path d="M39.744 2.79071C37.79 1.43062 35.1272 0.750419 31.5208 0.750327L31.5207 0.75C14.5495 0.75 0.75 14.5399 0.75 31.5C0.75 48.4601 14.5495 62.25 31.5207 62.25C48.3529 62.25 62.0247 48.676 62.25 31.9097L62.2501 31.9097L62.25 31.9034C62.2244 29.6649 61.4159 26.9916 60.1295 25.4223L60.1273 25.4197C58.8212 23.8708 57.1547 22.8155 55.4683 21.9093C54.6247 21.456 53.7661 21.0313 52.9221 20.6168C52.8409 20.5769 52.7598 20.5372 52.679 20.4975C51.9177 20.1239 51.1708 19.7575 50.4546 19.382C48.8675 18.5502 47.4525 17.6852 46.3986 16.6322C45.4847 15.7189 45.0019 14.4705 44.6037 12.9672C44.4644 12.4411 44.3348 11.8797 44.1995 11.2939C43.954 10.2308 43.6899 9.08706 43.3153 7.92686C42.7263 6.1019 41.7021 4.15358 39.744 2.79071ZM5.06563 31.4999C5.06563 16.8763 16.8869 5.06269 31.5207 5.06239V5.0625C34.5915 5.0625 36.2877 5.63795 37.2794 6.32821C38.2663 7.01517 38.7773 7.90946 39.2111 9.25279C39.4271 9.92201 39.5866 10.6929 39.7566 11.5381C39.7661 11.5853 39.7757 11.6328 39.7852 11.6804C39.946 12.481 40.1187 13.3405 40.3582 14.2151C40.8664 16.0713 41.6803 18.014 43.3484 19.681C44.8814 21.2129 46.6662 22.3214 48.4319 23.245C49.2939 23.6959 50.1543 24.1041 50.9788 24.4953L51.0381 24.5235C51.8825 24.9241 52.6869 25.3069 53.4253 25.7036L53.4251 25.7039L53.4376 25.7097C56.3274 27.0627 57.9769 28.9069 57.9769 31.4999C57.9769 46.1237 46.1554 57.9374 31.5213 57.9374C16.8871 57.9374 5.06563 46.1237 5.06563 31.4999ZM29.6132 21.7188C23.177 21.7188 17.9179 26.974 17.9179 33.4062C17.9179 39.8385 23.177 45.0938 29.6132 45.0938C36.0494 45.0938 41.3084 39.8385 41.3084 33.4062C41.3084 26.974 36.0494 21.7188 29.6132 21.7188ZM29.6132 26.0312C33.7119 26.0312 36.9933 29.3108 36.9933 33.4062C36.9933 37.5017 33.7119 40.7812 29.6132 40.7812C25.5145 40.7812 22.233 37.5018 22.233 33.4062C22.233 29.3108 25.5145 26.0312 29.6132 26.0312Z" fill="#FF1515" stroke="#FF1515" stroke-width="0.5"/>
</svg>
