<svg width="662" height="390" viewBox="0 0 662 390" fill="none" xmlns="http://www.w3.org/2000/svg">
<path d="M176.66 261.959H155.713V304H113.672V261.959H8.64258L32.0801 93.9414H74.1211L55.8105 220.064H113.672V115.035H155.713V220.064H176.66V261.959Z" fill="#15161A"/>
<path d="M648.66 261.959H627.713V304H585.672V261.959H480.643L504.08 93.9414H546.121L527.811 220.064H585.672V115.035H627.713V220.064H648.66V261.959Z" fill="#15161A"/>
<path d="M277.763 98.561C276.863 96.6219 274.525 95.8283 272.63 96.8186L267.409 99.5873C265.516 100.577 264.834 102.95 265.915 104.794L302.209 166.745C304.133 165.763 306.107 164.854 308.141 163.976L277.763 98.561ZM239 112.5L238.462 113.114L234.192 117.069C232.635 118.539 232.607 121.007 234.129 122.513L287.973 175.763C289.565 174.52 291.23 173.276 292.954 172.124L243.417 112.852C242.303 111.519 240.311 111.36 239 112.5ZM330.996 128.223C319.847 128.223 309.13 129.152 299.124 130.833L303.869 141.037C312.364 139.776 321.477 138.98 330.996 138.98C353.392 138.98 373.621 142.774 388.573 149.027C396.05 152.152 402.188 155.969 406.605 160.338C408.43 162.142 409.927 164.086 411.114 166.111V166.113C411.705 166.611 412.076 167.321 412.143 168.091C413.179 170.382 413.804 172.787 413.804 175.289C413.804 177.142 413.439 178.914 412.854 180.667C413.07 181.852 412.537 183.046 411.509 183.674C410.277 186.012 408.67 188.28 406.605 190.319C402.186 194.687 396.048 198.425 388.573 201.552C385.47 202.85 382.059 203.964 378.528 205.032H378.53C378.452 205.062 378.372 205.087 378.291 205.11C364.858 209.145 348.638 211.518 330.996 211.518C313.575 211.518 297.509 209.29 284.174 205.349C283.668 205.315 283.177 205.153 282.751 204.874C279.478 203.86 276.317 202.764 273.42 201.551C273.028 201.386 272.696 201.164 272.313 200.996L272.311 200.998C272.232 200.975 272.152 200.949 272.075 200.919H271.995C271.624 200.828 271.277 200.668 270.968 200.444C264.602 197.55 259.224 194.189 255.309 190.319C250.89 185.951 248.191 180.807 248.191 175.29C248.191 169.772 250.89 164.708 255.309 160.34C256.695 158.969 258.252 157.64 259.975 156.385L251.354 147.842C237.704 156.635 230 167.509 230 178.929V210.334C230 257.61 274.744 296 331 296C387.256 296 432 257.608 432 210.334V178.929C432 165.577 421.459 152.979 403.212 143.569C384.961 134.16 359.389 128.223 331 128.223L330.996 128.223ZM277.373 136.054C275.539 136.635 273.747 137.235 271.996 137.873L279.43 146.733C280.584 146.336 281.785 145.995 282.989 145.626L277.453 136.054L277.373 136.054ZM330.996 144.835C322.407 144.835 314.105 145.358 306.399 146.417L313.517 161.842C326.616 157.008 341.535 154.248 357.412 154.248C371.997 154.248 385.767 156.679 398.063 160.812C394.818 158.498 390.906 156.261 386.279 154.325C372.326 148.489 352.709 144.833 330.998 144.833L330.996 144.835ZM285.994 150.768C285.112 151.027 284.238 151.285 283.385 151.559L293.667 163.82L285.994 150.768ZM357.41 160.101C320.552 160.101 289.343 175.709 276.82 196.725C278.898 197.56 281.08 198.361 283.383 199.098C288.191 193.737 294.099 188.975 300.863 184.859V184.861C300.914 184.806 300.967 184.753 301.022 184.704C317.357 174.816 338.693 168.883 362.079 168.883C378.651 168.883 394.222 171.943 407.716 177.189C407.815 176.566 407.875 175.916 407.875 175.291C407.875 173.659 407.533 172.065 406.848 170.465C392.853 163.958 375.829 160.102 357.414 160.102L357.41 160.101ZM264.242 160.576C262.463 161.815 260.81 163.074 259.497 164.372C255.832 167.995 254.04 171.583 254.04 175.287C254.04 178.992 255.834 182.661 259.497 186.282C262.375 189.127 266.451 191.878 271.44 194.352C274.514 189.016 278.579 184.031 283.463 179.559L264.245 160.574L264.242 160.576ZM362.079 174.735C361.313 174.735 346.261 175.488 345.5 175.5C361.5 183.5 385.714 184.278 395.14 191.899C398.067 190.119 400.557 188.197 402.494 186.282C403.746 185.046 404.773 183.812 405.578 182.564C392.811 177.615 377.941 174.733 362.079 174.733V174.735ZM326 172.124C323.181 172.672 320.083 176.046 317.393 176.773C336.203 180.215 365.241 189.523 378.056 199.257C380.958 198.346 383.733 197.396 386.281 196.329C387.418 195.854 388.464 195.332 389.524 194.827C376.717 185.244 353.229 173.692 332.809 172.124L329.5 170.465L326 172.124ZM317.393 183.12C315.661 183.821 313.979 184.559 312.332 185.334C330.081 188.267 345.77 194.772 357.648 203.844C362.268 203.15 366.704 202.255 370.857 201.234C356.802 191.717 338.219 185.122 317.393 183.12ZM303.632 190.08C298.346 193.321 293.647 196.931 289.712 200.919C301.639 204 315.785 205.824 330.997 205.824C337.226 205.824 343.231 205.52 349.029 204.953C336.915 197.213 321.194 191.838 303.631 190.083L303.632 190.08Z" fill="#15161A"/>
</svg>
