<svg width="42" height="7" viewBox="0 0 42 7" fill="none" xmlns="http://www.w3.org/2000/svg">
<path d="M0 2.81038C0 1.78391 0.780379 0.925678 1.80223 0.828359L8.6945 0.171953C9.88762 0.0583215 11.0915 0.168994 12.2439 0.498254L14.6781 1.19373C18.81 2.37429 23.19 2.37429 27.3219 1.19373L29.7561 0.498254C30.9085 0.168994 32.1124 0.0583216 33.3055 0.171953L40.1978 0.828359C41.2196 0.925678 42 1.78391 42 2.81038C42 3.98455 40.9891 4.90373 39.8202 4.7924L33.0386 4.14653C32.0219 4.0497 30.996 4.14401 30.0139 4.4246L27.3219 5.19373C23.19 6.37429 18.81 6.37429 14.6781 5.19373L11.9861 4.4246C11.004 4.14401 9.97814 4.0497 8.96138 4.14653L2.17975 4.7924C1.01087 4.90373 0 3.98455 0 2.81038Z" fill="#FF1515"/>
</svg>
